<?xml version="1.0" encoding="UTF-8" standalone="no"?>
<!DOCTYPE svg PUBLIC "-//W3C//DTD SVG 1.1//EN"
 "http://www.w3.org/Graphics/SVG/1.1/DTD/svg11.dtd">
<!-- Generated by graphviz version 2.43.0 (0)
 -->
<!-- Title: G Pages: 1 -->
<svg width="900pt" height="335pt"
 viewBox="0.00 0.00 900.00 335.00" xmlns="http://www.w3.org/2000/svg" xmlns:xlink="http://www.w3.org/1999/xlink">
<g id="graph0" class="graph" transform="scale(1 1) rotate(0) translate(4 331)">
<title>G</title>
<polygon fill="white" stroke="transparent" points="-4,4 -4,-331 896,-331 896,4 -4,4"/>
<g id="clust1" class="cluster">
<title>cluster_module.vpc_basic</title>
<polygon fill="none" stroke="black" points="8,-46 8,-175 666,-175 666,-46 8,-46"/>
<text text-anchor="middle" x="337" y="-159.8" font-family="sans-serif" font-size="14.00">module.vpc_basic</text>
</g>
<!-- aws_elb.web -->
<g id="node1" class="node">
<title>aws_elb.web</title>
<polygon fill="none" stroke="black" points="845,-219 741,-219 741,-183 845,-183 845,-219"/>
<text text-anchor="middle" x="793" y="-197.3" font-family="sans-serif" font-size="14.00">aws_elb.web</text>
</g>
<!-- aws_instance.web -->
<g id="node2" class="node">
<title>aws_instance.web</title>
<polygon fill="none" stroke="black" points="630,-219 488,-219 488,-183 630,-183 630,-219"/>
<text text-anchor="middle" x="559" y="-197.3" font-family="sans-serif" font-size="14.00">aws_instance.web</text>
</g>
<!-- aws_elb.web&#45;&gt;aws_instance.web -->
<g id="edge1" class="edge">
<title>aws_elb.web&#45;&gt;aws_instance.web</title>
<path fill="none" stroke="black" d="M740.8,-201C711.41,-201 673.86,-201 640.6,-201"/>
<polygon fill="black" stroke="black" points="640.43,-197.5 630.43,-201 640.43,-204.5 640.43,-197.5"/>
</g>
<!-- aws_security_group.web_inbound_sg -->
<g id="node6" class="node">
<title>aws_security_group.web_inbound_sg</title>
<polygon fill="none" stroke="black" points="424,-219 151,-219 151,-183 424,-183 424,-219"/>
<text text-anchor="middle" x="287.5" y="-197.3" font-family="sans-serif" font-size="14.00">aws_security_group.web_inbound_sg</text>
</g>
<!-- aws_instance.web&#45;&gt;aws_security_group.web_inbound_sg -->
<g id="edge2" class="edge">
<title>aws_instance.web&#45;&gt;aws_security_group.web_inbound_sg</title>
<path fill="none" stroke="black" d="M487.9,-201C471.24,-201 452.85,-201 434.19,-201"/>
<polygon fill="black" stroke="black" points="434.1,-197.5 424.1,-201 434.1,-204.5 434.1,-197.5"/>
</g>
<!-- module.vpc_basic.aws_subnet.public -->
<g id="node11" class="node">
<title>module.vpc_basic.aws_subnet.public</title>
<polygon fill="none" stroke="black" points="360,-144 215,-144 215,-108 360,-108 360,-144"/>
<text text-anchor="middle" x="287.5" y="-122.3" font-family="sans-serif" font-size="14.00">aws_subnet.public</text>
</g>
<!-- aws_instance.web&#45;&gt;module.vpc_basic.aws_subnet.public -->
<g id="edge3" class="edge">
<title>aws_instance.web&#45;&gt;module.vpc_basic.aws_subnet.public</title>
<path fill="none" stroke="black" d="M487.97,-185.99C478.54,-183.76 469.01,-181.4 460,-179 424.25,-169.48 384.77,-157.39 352.72,-147.16"/>
<polygon fill="black" stroke="black" points="353.61,-143.77 343.02,-144.05 351.47,-150.44 353.61,-143.77"/>
</g>
<!-- aws_internet_gateway.tfb -->
<g id="node3" class="node">
<title>aws_internet_gateway.tfb</title>
<polygon fill="none" stroke="black" points="654.5,-273 463.5,-273 463.5,-237 654.5,-237 654.5,-273"/>
<text text-anchor="middle" x="559" y="-251.3" font-family="sans-serif" font-size="14.00">aws_internet_gateway.tfb</text>
</g>
<!-- aws_vpc.tfb -->
<g id="node8" class="node">
<title>aws_vpc.tfb</title>
<polygon fill="none" stroke="black" points="337,-300 238,-300 238,-264 337,-264 337,-300"/>
<text text-anchor="middle" x="287.5" y="-278.3" font-family="sans-serif" font-size="14.00">aws_vpc.tfb</text>
</g>
<!-- aws_internet_gateway.tfb&#45;&gt;aws_vpc.tfb -->
<g id="edge4" class="edge">
<title>aws_internet_gateway.tfb&#45;&gt;aws_vpc.tfb</title>
<path fill="none" stroke="black" d="M463.36,-264.48C424.74,-268.35 381.28,-272.7 347.35,-276.1"/>
<polygon fill="black" stroke="black" points="346.74,-272.65 337.14,-277.13 347.44,-279.61 346.74,-272.65"/>
</g>
<!-- aws_route.internet_access -->
<g id="node4" class="node">
<title>aws_route.internet_access</title>
<polygon fill="none" stroke="black" points="892,-273 694,-273 694,-237 892,-237 892,-273"/>
<text text-anchor="middle" x="793" y="-251.3" font-family="sans-serif" font-size="14.00">aws_route.internet_access</text>
</g>
<!-- aws_route.internet_access&#45;&gt;aws_internet_gateway.tfb -->
<g id="edge5" class="edge">
<title>aws_route.internet_access&#45;&gt;aws_internet_gateway.tfb</title>
<path fill="none" stroke="black" d="M693.95,-255C684.31,-255 674.5,-255 664.8,-255"/>
<polygon fill="black" stroke="black" points="664.74,-251.5 654.74,-255 664.74,-258.5 664.74,-251.5"/>
</g>
<!-- aws_security_group.web_host_sg -->
<g id="node5" class="node">
<title>aws_security_group.web_host_sg</title>
<polygon fill="none" stroke="black" points="410.5,-36 164.5,-36 164.5,0 410.5,0 410.5,-36"/>
<text text-anchor="middle" x="287.5" y="-14.3" font-family="sans-serif" font-size="14.00">aws_security_group.web_host_sg</text>
</g>
<!-- module.vpc_basic.aws_vpc.tfb -->
<g id="node12" class="node">
<title>module.vpc_basic.aws_vpc.tfb</title>
<polygon fill="none" stroke="black" points="115,-117 16,-117 16,-81 115,-81 115,-117"/>
<text text-anchor="middle" x="65.5" y="-95.3" font-family="sans-serif" font-size="14.00">aws_vpc.tfb</text>
</g>
<!-- aws_security_group.web_host_sg&#45;&gt;module.vpc_basic.aws_vpc.tfb -->
<g id="edge6" class="edge">
<title>aws_security_group.web_host_sg&#45;&gt;module.vpc_basic.aws_vpc.tfb</title>
<path fill="none" stroke="black" d="M167.45,-36.11C161.82,-37.89 156.32,-39.85 151,-42 131.35,-49.95 111.58,-62.94 96.11,-74.52"/>
<polygon fill="black" stroke="black" points="93.78,-71.89 87.99,-80.76 98.05,-77.44 93.78,-71.89"/>
</g>
<!-- aws_security_group.web_inbound_sg&#45;&gt;module.vpc_basic.aws_vpc.tfb -->
<g id="edge7" class="edge">
<title>aws_security_group.web_inbound_sg&#45;&gt;module.vpc_basic.aws_vpc.tfb</title>
<path fill="none" stroke="black" d="M159.52,-182.88C156.62,-181.67 153.78,-180.37 151,-179 125.41,-166.34 102.31,-143.27 86.76,-125.14"/>
<polygon fill="black" stroke="black" points="89.26,-122.67 80.17,-117.22 83.88,-127.15 89.26,-122.67"/>
</g>
<!-- aws_subnet.public -->
<g id="node7" class="node">
<title>aws_subnet.public</title>
<polygon fill="none" stroke="black" points="631.5,-327 486.5,-327 486.5,-291 631.5,-291 631.5,-327"/>
<text text-anchor="middle" x="559" y="-305.3" font-family="sans-serif" font-size="14.00">aws_subnet.public</text>
</g>
<!-- aws_subnet.public&#45;&gt;aws_vpc.tfb -->
<g id="edge8" class="edge">
<title>aws_subnet.public&#45;&gt;aws_vpc.tfb</title>
<path fill="none" stroke="black" d="M486.49,-301.84C443.07,-297.49 388.33,-292 347.42,-287.9"/>
<polygon fill="black" stroke="black" points="347.63,-284.41 337.33,-286.89 346.93,-291.37 347.63,-284.41"/>
</g>
<!-- module.vpc_basic.aws_internet_gateway.tfb -->
<g id="node9" class="node">
<title>module.vpc_basic.aws_internet_gateway.tfb</title>
<polygon fill="none" stroke="black" points="383,-90 192,-90 192,-54 383,-54 383,-90"/>
<text text-anchor="middle" x="287.5" y="-68.3" font-family="sans-serif" font-size="14.00">aws_internet_gateway.tfb</text>
</g>
<!-- module.vpc_basic.aws_internet_gateway.tfb&#45;&gt;module.vpc_basic.aws_vpc.tfb -->
<g id="edge9" class="edge">
<title>module.vpc_basic.aws_internet_gateway.tfb&#45;&gt;module.vpc_basic.aws_vpc.tfb</title>
<path fill="none" stroke="black" d="M191.92,-83.61C169.31,-86.38 145.81,-89.27 125.34,-91.78"/>
<polygon fill="black" stroke="black" points="124.75,-88.33 115.25,-93.02 125.6,-95.27 124.75,-88.33"/>
</g>
<!-- module.vpc_basic.aws_route.internet_access -->
<g id="node10" class="node">
<title>module.vpc_basic.aws_route.internet_access</title>
<polygon fill="none" stroke="black" points="658,-90 460,-90 460,-54 658,-54 658,-90"/>
<text text-anchor="middle" x="559" y="-68.3" font-family="sans-serif" font-size="14.00">aws_route.internet_access</text>
</g>
<!-- module.vpc_basic.aws_route.internet_access&#45;&gt;module.vpc_basic.aws_internet_gateway.tfb -->
<g id="edge10" class="edge">
<title>module.vpc_basic.aws_route.internet_access&#45;&gt;module.vpc_basic.aws_internet_gateway.tfb</title>
<path fill="none" stroke="black" d="M459.94,-72C438.37,-72 415.45,-72 393.62,-72"/>
<polygon fill="black" stroke="black" points="393.34,-68.5 383.33,-72 393.33,-75.5 393.34,-68.5"/>
</g>
<!-- module.vpc_basic.aws_subnet.public&#45;&gt;module.vpc_basic.aws_vpc.tfb -->
<g id="edge11" class="edge">
<title>module.vpc_basic.aws_subnet.public&#45;&gt;module.vpc_basic.aws_vpc.tfb</title>
<path fill="none" stroke="black" d="M214.77,-117.2C185.86,-113.65 152.92,-109.61 125.45,-106.23"/>
<polygon fill="black" stroke="black" points="125.56,-102.72 115.2,-104.98 124.7,-109.67 125.56,-102.72"/>
</g>
</g>
</svg>
